<svg viewBox="0 0 24 24" xmlns="http://www.w3.org/2000/svg"><path d="m12 2.5a9.5 9.5 0 1 0 9.5 9.5 9.511 9.511 0 0 0 -9.5-9.5zm0 18a8.5 8.5 0 1 1 8.5-8.5 8.51 8.51 0 0 1 -8.5 8.5zm3.262-13.581-4.055 1.014a4.491 4.491 0 0 0 -3.274 3.274l-1.014 4.054a1.5 1.5 0 0 0 1.45 1.865 1.51 1.51 0 0 0 .369-.046l4.055-1.013a4.492 4.492 0 0 0 3.274-3.274l1.014-4.055a1.5 1.5 0 0 0 -1.819-1.819zm.849 1.576-1.011 4.056a3.5 3.5 0 0 1 -2.549 2.549l-4.056 1.011a.5.5 0 0 1 -.606-.607l1.011-4.055a3.494 3.494 0 0 1 2.549-2.549l4.051-1.011a.5.5 0 0 1 .607.606zm-3.111 3.505a1 1 0 1 1 -1-1 1 1 0 0 1 1 1z" fill="#41416e"/></svg>