<svg viewBox="0 0 24 24" xmlns="http://www.w3.org/2000/svg"><path d="m17 3.5h-.5v-.5a.5.5 0 0 0 -1 0v.5h-7v-.5a.5.5 0 0 0 -1 0v.5h-.5a4.5 4.5 0 0 0 -4.5 4.5v9a4.505 4.505 0 0 0 4.5 4.5h10a4.505 4.505 0 0 0 4.5-4.5v-9a4.5 4.5 0 0 0 -4.5-4.5zm-10 1h.5v1.5a.5.5 0 0 0 1 0v-1.5h7v1.5a.5.5 0 0 0 1 0v-1.5h.5a3.5 3.5 0 0 1 3.5 3.5v.5h-17v-.5a3.5 3.5 0 0 1 3.5-3.5zm10 16h-10a3.5 3.5 0 0 1 -3.5-3.5v-7.5h17v7.5a3.5 3.5 0 0 1 -3.5 3.5zm0-7.5a1 1 0 1 1 -1-1 1 1 0 0 1 1 1zm-4 0a1 1 0 1 1 -1-1 1 1 0 0 1 1 1zm-4 0a1 1 0 1 1 -1-1 1 1 0 0 1 1 1zm8 4a1 1 0 1 1 -1-1 1 1 0 0 1 1 1zm-4 0a1 1 0 1 1 -1-1 1 1 0 0 1 1 1zm-4 0a1 1 0 1 1 -1-1 1 1 0 0 1 1 1z" fill="#41416e"/></svg>