<svg id="magicoon-Light" xmlns="http://www.w3.org/2000/svg" viewBox="0 0 24 24"><defs><style>.cls-1{fill:#41416e;}</style></defs><title>heart</title><g id="heart-Light"><path id="heart-Light-2" data-name="heart-Light" class="cls-1" d="M19.917,5.256A6,6,0,0,0,15.228,3,6.514,6.514,0,0,0,12,3.844,6.514,6.514,0,0,0,8.772,3,6,6,0,0,0,4.083,5.256,7.085,7.085,0,0,0,2.63,11.062c.955,4.9,5.974,8.335,8.088,9.586a2.511,2.511,0,0,0,2.564,0c2.114-1.251,7.133-4.69,8.088-9.586A7.085,7.085,0,0,0,19.917,5.256Zm.471,5.614c-.877,4.5-5.618,7.735-7.616,8.918a1.515,1.515,0,0,1-1.544,0c-2-1.183-6.739-4.419-7.616-8.918A6.071,6.071,0,0,1,4.855,5.892,5.015,5.015,0,0,1,8.772,4a5.478,5.478,0,0,1,2.959.85.5.5,0,0,0,.538,0A5.478,5.478,0,0,1,15.228,4a5.015,5.015,0,0,1,3.917,1.892A6.071,6.071,0,0,1,20.388,10.87Z"/></g></svg>