<svg viewBox="0 0 24 24" xmlns="http://www.w3.org/2000/svg"><path d="m19.917 5.256a6 6 0 0 0 -4.689-2.256 6.514 6.514 0 0 0 -3.228.844 6.514 6.514 0 0 0 -3.228-.844 6 6 0 0 0 -4.689 2.256 7.085 7.085 0 0 0 -1.453 5.806c.955 4.9 5.974 8.335 8.088 9.586a2.511 2.511 0 0 0 2.564 0c2.114-1.251 7.133-4.69 8.088-9.586a7.085 7.085 0 0 0 -1.453-5.806zm.471 5.614c-.877 4.5-5.618 7.735-7.616 8.918a1.515 1.515 0 0 1 -1.544 0c-2-1.183-6.739-4.419-7.616-8.918a6.071 6.071 0 0 1 1.243-4.978 5.015 5.015 0 0 1 3.917-1.892 5.478 5.478 0 0 1 2.959.85.5.5 0 0 0 .538 0 5.478 5.478 0 0 1 2.959-.85 5.015 5.015 0 0 1 3.917 1.892 6.071 6.071 0 0 1 1.243 4.978z" fill="#41416e"/></svg>