


<svg id="ToEatandDrink" xmlns="http://www.w3.org/2000/svg" width="12.054" height="12" viewBox="0 0 12.054 12">
  <path id="XMLID_98_" d="M5.98,307.656q-.077-.006-.154-.007a1.811,1.811,0,0,0-.41.051l-3.088-3.088a.388.388,0,0,1,0-.549l.8-.8a.388.388,0,0,1,.548,0l3.711,3.71-.688.742Z" transform="translate(-2.161 -303.151)" fill="#fff"/>
  <path id="XMLID_97_" d="M254.73,4.483a.371.371,0,0,1-.524,0l-2-2a.484.484,0,0,0-.685.684l1.991,1.991a.386.386,0,0,1-.546.546l-1.99-1.991a.484.484,0,0,0-.685.684l2,2a.371.371,0,0,1-.525.525l-2.251-2.251a2.08,2.08,0,0,1-.537-1.993l1.509-1.509a2.081,2.081,0,0,1,1.993.538l2.251,2.251A.371.371,0,0,1,254.73,4.483Z" transform="translate(-242.785 4.968)" fill="#fff"/>
  <path id="XMLID_96_" d="M1.012,20.582a.408.408,0,0,1-.289.119A.414.414,0,0,1,.655,20.7a.408.408,0,0,1-.3-.225,3.557,3.557,0,0,1,.687-4.064l1.915-1.915a1,1,0,0,1,.709-.294c.028,0,.057,0,.085,0l1.112.095,4.848-5.23A.409.409,0,0,1,10,8.937h.007a.411.411,0,0,1,.29.119l.83.83a.409.409,0,0,1,0,.577Z" transform="translate(0 -8.895)" fill="#fff"/>
</svg>
