<svg xmlns="http://www.w3.org/2000/svg" width="18" height="10.414" viewBox="0 0 18 10.414">
  <g id="ToSee" transform="translate(0 -1)">
    <g id="XMLID_1736_" transform="translate(0 1)">
      <path id="XMLID_1737_" d="M334.409,229.65a1.71,1.71,0,0,0-1.709,1.709.41.41,0,1,0,.82,0,.9.9,0,0,1,.893-.893.408.408,0,1,0,0-.816Z" transform="translate(-320.418 -224.965)" fill="#fff"/>
      <path id="XMLID_1738_" d="M16.778,106.257c-.1-.1-.207-.188-.317-.277h0L14.947,104.7a3.971,3.971,0,0,0-2.03-.727l.081.081-.919-.923h-.007a1.439,1.439,0,0,0-2.34.62,1.316,1.316,0,0,0-.631-.2c-.037,0-.078,0-.114,0a1.341,1.341,0,0,0-.712.207,1.441,1.441,0,0,0-2.34-.617H5.925l-.919.923.081-.081a3.992,3.992,0,0,0-2.03.727l-1.514,1.285h0a3.215,3.215,0,0,0-.317.277A4.015,4.015,0,1,0,8,109.642a2.016,2.016,0,0,0,2,0,4.015,4.015,0,0,0,8-.5A3.981,3.981,0,0,0,16.778,106.257Zm-12.762,5.63a2.739,2.739,0,1,1,2.739-2.739A2.738,2.738,0,0,1,4.016,111.887ZM9,108.771a.89.89,0,1,1,.89-.89A.89.89,0,0,1,9,108.771Zm4.987,3.116a2.739,2.739,0,1,1,2.739-2.739A2.738,2.738,0,0,1,13.991,111.887Z" transform="translate(0 -102.75)" fill="#fff"/>
      <path id="XMLID_1745_" d="M64.209,229.65a1.71,1.71,0,0,0-1.709,1.709.41.41,0,1,0,.82,0,.9.9,0,0,1,.893-.893.408.408,0,1,0,0-.816Z" transform="translate(-60.193 -224.965)" fill="#fff"/>
    </g>
  </g>
</svg>
