<svg id="ToStay" xmlns="http://www.w3.org/2000/svg" width="12" height="12" viewBox="0 0 12 12">
  <rect id="Rectangle_562" data-name="Rectangle 562" width="12" height="12" fill="none"/>
  <path id="Path_150" data-name="Path 150" d="M2.933,9.542a1.3,1.3,0,0,1-.183.55c-.183.183-.275.183-.55.183H.733a1.3,1.3,0,0,1-.55-.183C0,10,0,9.725,0,9.542V5.325a.832.832,0,0,1,.275-.642l.55-.275a11.92,11.92,0,0,1,4.583-.733,12.64,12.64,0,0,1,4.767.733c.183.092.275.183.458.275A.692.692,0,0,1,11,5.325V9.542a1.3,1.3,0,0,1-.183.55c-.092.183-.275.183-.55.183H8.8a1.3,1.3,0,0,1-.55-.183c-.183-.092-.183-.275-.183-.55V8.808H2.933Zm.275-7.425a3.8,3.8,0,0,0-1.467.275c-.458.275-.825.458-1.008.825V1.567a.554.554,0,0,1,.275-.55C1.925.375,3.392.1,5.5.1H6.783a6.163,6.163,0,0,1,1.65.275,4.985,4.985,0,0,1,1.558.642.792.792,0,0,1,.275.55v1.65a2.219,2.219,0,0,0-1.008-.733,3.8,3.8,0,0,0-1.467-.275,2.928,2.928,0,0,0-1.283.275A2.578,2.578,0,0,0,5.5,2.942a4.971,4.971,0,0,0-1.008-.55A2.928,2.928,0,0,0,3.208,2.117Z" transform="translate(0.5 0.813)" fill="#fff"/>
</svg>
