<svg id="magicoon-Filled" xmlns="http://www.w3.org/2000/svg" viewBox="0 0 24 24"><defs><style>.cls-1{fill:#41416e;}</style></defs><title>user</title><g id="user-Filled"><path id="user-Filled-2" data-name="user-Filled" class="cls-1" d="M7,7.5a5,5,0,1,1,5,5A5.006,5.006,0,0,1,7,7.5Zm9.117,6.071a2.311,2.311,0,0,0-1.67.218,5.046,5.046,0,0,1-4.894,0,2.315,2.315,0,0,0-1.67-.218,4.509,4.509,0,0,0-3.383,4.4v1.011a3.535,3.535,0,0,0,.493,1.8,1.494,1.494,0,0,0,1.285.717H17.722a1.493,1.493,0,0,0,1.285-.718,3.529,3.529,0,0,0,.493-1.8V17.967A4.509,4.509,0,0,0,16.117,13.571Z"/></g></svg>